<?xml version="1.0" standalone="no"?>
<!DOCTYPE svg PUBLIC "-//W3C//DTD SVG 20010904//EN"
 "http://www.w3.org/TR/2001/REC-SVG-20010904/DTD/svg10.dtd">
<svg version="1.0" xmlns="http://www.w3.org/2000/svg"
 width="374.000000pt" height="67.000000pt" viewBox="0 0 374.000000 67.000000"
 preserveAspectRatio="xMidYMid meet">

<g transform="translate(0.000000,67.000000) scale(0.100000,-0.100000)"
fill="#000000" stroke="none">
<path d="M0 335 l0 -335 1870 0 1870 0 0 335 0 335 -1870 0 -1870 0 0 -335z
m1025 270 c0 -25 -3 -45 -6 -45 -9 0 -15 40 -11 68 6 39 17 24 17 -23z m-905
21 c0 -2 -7 -7 -16 -10 -8 -3 -12 -2 -9 4 6 10 25 14 25 6z m50 0 c0 -2 -7 -7
-16 -10 -8 -3 -12 -2 -9 4 6 10 25 14 25 6z m102 -3 c-6 -2 -9 -10 -6 -15 4
-7 2 -8 -5 -4 -13 9 -5 26 12 25 9 0 8 -2 -1 -6z m61 0 c-7 -2 -19 -2 -25 0
-7 3 -2 5 12 5 14 0 19 -2 13 -5z m97 -33 c5 0 11 10 13 23 4 19 4 18 6 -5 1
-22 -4 -28 -19 -28 -15 0 -20 6 -19 28 2 23 2 24 6 5 2 -13 8 -23 13 -23z m60
21 c-7 -14 -6 -21 3 -24 6 -3 1 -6 -12 -6 -20 -1 -22 1 -10 15 10 13 10 17 -2
25 -11 7 -9 9 9 9 19 0 21 -3 12 -19z m57 13 c-3 -3 -12 -4 -19 -1 -8 3 -5 6
6 6 11 1 17 -2 13 -5z m55 -19 c4 -20 1 -25 -16 -24 -11 0 -15 3 -8 6 6 2 12
11 12 18 0 7 -6 16 -12 18 -8 4 -7 6 3 6 10 1 19 -9 21 -24z m46 13 c-9 -7
-18 -20 -21 -28 -3 -8 -6 -3 -6 13 -1 21 3 27 21 27 19 0 20 -2 6 -12z m59 6
c-3 -3 -12 -4 -19 -1 -8 3 -5 6 6 6 11 1 17 -2 13 -5z m63 -9 c0 -8 -8 -15
-17 -16 -15 0 -15 -2 2 -9 16 -7 17 -9 3 -9 -21 -1 -32 15 -24 34 7 20 36 19
36 0z m40 -6 c0 8 2 12 5 9 3 -3 2 -13 -1 -23 -7 -17 -8 -17 -21 1 -7 10 -13
22 -13 28 0 5 7 1 15 -10 10 -13 14 -15 15 -5z m113 4 c-7 -2 -19 -2 -25 0 -7
3 -2 5 12 5 14 0 19 -2 13 -5z m-376 -9 c-3 -3 -12 -4 -19 -1 -8 3 -5 6 6 6
11 1 17 -2 13 -5z m152 -10 c6 4 11 2 11 -4 0 -17 -33 -8 -37 10 -4 12 -3 13
5 1 5 -7 15 -10 21 -7z m224 -1 c-7 -2 -19 -2 -25 0 -7 3 -2 5 12 5 14 0 19
-2 13 -5z m-376 -9 c-3 -3 -12 -4 -19 -1 -8 3 -5 6 6 6 11 1 17 -2 13 -5z
m-297 -94 c9 14 40 7 40 -10 0 -5 -8 -10 -17 -11 -15 0 -15 -2 2 -9 19 -8 19
-9 -2 -9 -13 -1 -23 5 -23 12 0 9 -3 9 -9 -1 -12 -19 -45 -11 -49 11 -3 12 4
20 17 24 12 3 22 10 22 17 1 6 4 0 6 -13 4 -17 7 -20 13 -11z m180 1 c0 -16 6
-32 13 -34 6 -3 3 -6 -8 -6 -16 -1 -20 5 -20 34 0 19 3 35 8 35 4 0 7 -13 7
-29z m-100 -8 c0 9 4 17 10 17 6 0 5 -10 -2 -25 -11 -24 -28 -34 -28 -16 0 5
-3 18 -6 28 -6 16 -5 16 9 -2 15 -18 16 -18 17 -2z m68 0 c2 -7 -5 -13 -15
-14 -16 0 -16 -1 2 -9 19 -8 19 -9 -2 -9 -26 -1 -35 11 -27 34 7 18 35 17 42
-2z m110 -6 c4 -20 -25 -34 -40 -19 -15 15 -1 44 19 40 10 -2 19 -11 21 -21z
m48 12 c5 -8 9 -7 14 1 9 14 40 6 40 -10 0 -5 -8 -10 -17 -11 -15 0 -15 -2 2
-9 19 -8 19 -9 -2 -9 -12 -1 -23 4 -25 9 -2 6 -13 2 -26 -10 l-22 -21 0 36 c0
35 20 49 36 24z m109 1 c3 -6 -1 -7 -9 -4 -11 4 -19 -2 -25 -17 -10 -24 -10
-24 -10 4 -1 20 4 27 18 27 11 0 23 -4 26 -10z m148 3 c-7 -2 -19 -2 -25 0 -7
3 -2 5 12 5 14 0 19 -2 13 -5z m211 -32 c3 -5 -1 -14 -8 -20 -12 -10 -13 -8
-9 8 6 23 9 25 17 12z m-582 -109 c-16 -5 -15 -29 1 -35 7 -3 5 -6 -5 -6 -12
-1 -18 6 -18 19 0 11 -4 20 -10 20 -5 0 -10 -9 -10 -20 0 -21 -33 -29 -45 -10
-3 6 -16 10 -28 9 -21 0 -21 -1 -2 -10 20 -9 20 -9 0 -6 -11 1 -21 10 -23 20
-5 23 28 35 39 14 6 -10 17 -13 31 -9 21 5 21 6 2 14 -17 8 -17 8 2 4 12 -2
28 0 34 4 7 5 20 5 29 2 10 -4 11 -7 3 -10z m210 0 c-16 -5 -15 -29 1 -35 7
-4 6 -6 -4 -6 -10 -1 -19 9 -21 24 -6 29 -1 36 20 27 10 -4 12 -7 4 -10z
m-424 1 c-10 -2 -18 -11 -18 -18 0 -7 8 -16 18 -18 13 -4 11 -5 -5 -6 -18 -1
-23 4 -23 24 0 20 5 25 23 24 16 -1 18 -2 5 -6z m62 -3 c0 -5 -6 -7 -14 -4 -9
4 -16 -3 -19 -18 -4 -21 -4 -20 -6 5 -1 21 4 27 19 27 11 0 20 -4 20 -10z
m202 -15 c4 -20 1 -25 -16 -24 -11 0 -15 3 -8 6 6 2 12 11 12 18 0 7 -6 16
-12 18 -8 4 -7 6 3 6 10 1 19 -9 21 -24z m52 11 c4 9 9 14 12 11 8 -8 -16 -48
-25 -42 -5 2 -11 15 -14 27 -6 21 -5 22 7 5 13 -16 14 -16 20 -1z m46 -5 c0
-11 6 -22 13 -24 6 -3 3 -6 -8 -6 -15 -1 -20 5 -20 24 0 14 3 25 8 25 4 0 7
-9 7 -19z m114 5 c4 9 9 14 12 11 9 -8 -25 -67 -39 -67 -9 0 -9 2 1 8 10 7 10
16 2 38 -9 26 -8 27 4 11 13 -16 14 -16 20 -1z m163 8 c-3 -3 -12 -4 -19 -1
-8 3 -5 6 6 6 11 1 17 -2 13 -5z m205 -56 c-7 -7 -10 -5 -7 8 5 29 6 30 12 16
3 -8 1 -18 -5 -24z m-675 -105 c-4 -15 -5 -14 -6 5 0 12 -5 22 -10 22 -5 0
-12 -10 -14 -22 -3 -14 -5 -8 -6 15 l-1 38 21 -20 c12 -11 19 -27 16 -38z
m143 27 c0 -34 15 -40 25 -9 8 26 40 21 40 -6 0 -16 -8 -20 -40 -22 -39 -2
-40 -2 -40 32 0 19 3 35 8 35 4 0 7 -13 7 -30z m2998 1 c14 11 15 11 5 -1 -10
-11 -10 -17 0 -29 10 -14 10 -14 -5 -3 -13 10 -17 10 -21 0 -3 -7 -5 5 -5 27
0 23 3 30 5 17 4 -20 7 -21 21 -11z m-3310 1 c-10 -2 -18 -7 -18 -12 0 -5 8
-14 18 -19 16 -10 16 -10 -1 -11 -17 0 -39 37 -31 52 2 3 14 3 27 0 18 -5 19
-7 5 -10z m1334 0 c-16 -5 -15 -29 1 -35 9 -4 9 -6 -1 -6 -13 -1 -33 39 -26
51 3 4 12 4 21 1 11 -4 13 -8 5 -11z m480 0 c-16 -5 -15 -29 1 -35 9 -4 9 -6
-1 -6 -13 -1 -33 39 -26 51 3 4 12 4 21 1 11 -4 13 -8 5 -11z m1340 0 c-16 -5
-15 -29 1 -35 7 -4 6 -6 -4 -6 -10 -1 -19 9 -21 24 -6 29 -1 36 20 27 10 -4
12 -7 4 -10z m-3094 -9 c2 -7 -5 -13 -15 -14 -16 0 -16 -1 2 -9 19 -8 19 -9
-2 -9 -22 -1 -33 15 -25 37 6 16 34 12 40 -5z m38 5 c-19 -11 -19 -11 -1 -24
16 -12 16 -14 3 -14 -9 0 -20 5 -23 10 -11 17 3 40 22 40 17 -1 16 -2 -1 -12z
m123 -15 c-2 -24 -2 -25 -6 -5 -2 12 -8 22 -13 22 -5 0 -11 -10 -13 -22 -4
-20 -4 -19 -6 5 -1 21 4 27 19 27 15 0 20 -6 19 -27z m59 4 c4 -20 -25 -34
-40 -19 -15 15 -1 44 19 40 10 -2 19 -11 21 -21z m155 6 c-4 -11 -8 -12 -11
-5 -5 16 -23 15 -19 0 1 -7 10 -16 20 -20 22 -9 13 -28 -14 -28 -14 0 -19 7
-19 28 0 33 7 42 31 42 13 0 17 -5 12 -17z m37 -2 c0 -11 6 -22 13 -24 6 -3 3
-6 -8 -6 -15 -1 -20 5 -20 24 0 14 3 25 8 25 4 0 7 -9 7 -19z m70 4 c0 -8 -8
-15 -17 -16 -15 0 -15 -2 2 -9 19 -8 19 -9 -2 -9 -22 -1 -32 26 -16 42 12 13
33 7 33 -8z m40 5 c-10 -6 -11 -10 -2 -10 6 0 12 -7 12 -15 0 -9 -9 -15 -22
-14 -21 0 -21 1 -4 8 18 7 18 8 2 14 -21 8 -12 27 12 27 15 0 15 -2 2 -10z
m327 4 c-3 -3 -12 -4 -19 -1 -8 3 -5 6 6 6 11 1 17 -2 13 -5z m111 -22 c2 -14
-2 -22 -12 -22 -22 0 -30 19 -11 26 14 6 14 9 3 16 -10 8 -10 9 2 5 8 -2 16
-13 18 -25z m44 21 c-6 -2 -9 -10 -6 -15 4 -7 2 -8 -5 -4 -13 9 -5 26 12 25 9
0 8 -2 -1 -6z m58 3 c0 -2 -7 -7 -16 -10 -8 -3 -12 -2 -9 4 6 10 25 14 25 6z
m167 -12 c3 -8 1 -20 -5 -26 -8 -8 -9 -4 -5 12 5 19 3 22 -11 17 -10 -4 -15
-3 -11 3 9 15 25 12 32 -6z m290 -21 c-3 -10 -5 -4 -5 12 0 17 2 24 5 18 2 -7
2 -21 0 -30z m80 31 c-3 -3 -12 -4 -19 -1 -8 3 -5 6 6 6 11 1 17 -2 13 -5z
m50 0 c-3 -3 -12 -4 -19 -1 -8 3 -5 6 6 6 11 1 17 -2 13 -5z m60 0 c-3 -3 -12
-4 -19 -1 -8 3 -5 6 6 6 11 1 17 -2 13 -5z m101 -26 c-2 -17 -9 -33 -16 -34
-7 -1 -8 0 -2 3 14 7 13 50 -2 56 -8 3 -5 6 5 6 15 1 18 -5 15 -31z m322 28
c0 -2 -7 -7 -16 -10 -8 -3 -12 -2 -9 4 6 10 25 14 25 6z m50 0 c0 -2 -7 -7
-16 -10 -8 -3 -12 -2 -9 4 6 10 25 14 25 6z m57 -2 c-3 -3 -12 -4 -19 -1 -8 3
-5 6 6 6 11 1 17 -2 13 -5z m61 -12 c2 -7 -6 -12 -20 -11 -19 1 -20 2 -4 6 15
4 16 7 5 15 -12 8 -12 9 0 6 8 -3 17 -10 19 -16z m94 11 c-6 -2 -9 -10 -6 -15
4 -7 2 -8 -5 -4 -13 9 -5 26 12 25 9 0 8 -2 -1 -6z m387 -20 c-2 -28 -2 -28
-7 -3 l-5 25 -8 -25 c-7 -25 -7 -25 -8 -2 -1 15 -5 21 -13 16 -7 -4 -8 -3 -4
4 4 7 16 12 27 12 14 0 19 -6 18 -27z m51 12 c0 -8 -8 -15 -17 -16 -15 0 -15
-2 2 -9 16 -7 17 -9 3 -9 -21 -1 -32 15 -24 34 7 20 36 19 36 0z m55 5 c3 -5
0 -7 -9 -4 -9 4 -16 -2 -19 -18 -4 -21 -4 -20 -6 5 -1 27 21 38 34 17z m54
-17 c-2 -24 -2 -25 -6 -5 -2 12 -8 22 -13 22 -5 0 -11 -10 -13 -22 -4 -20 -4
-19 -6 5 -1 21 4 27 19 27 15 0 20 -6 19 -27z m91 17 c-10 -6 -11 -10 -2 -10
6 0 12 -7 12 -15 0 -8 -8 -15 -17 -15 -15 0 -16 2 -3 10 10 6 11 10 3 10 -7 0
-13 7 -13 15 0 8 8 15 18 15 14 0 15 -2 2 -10z m120 -15 c0 -18 -5 -25 -20
-25 -24 0 -27 18 -4 27 13 5 13 7 2 14 -10 7 -9 9 5 9 12 0 17 -8 17 -25z m50
21 c0 -2 -7 -7 -16 -10 -8 -3 -12 -2 -9 4 6 10 25 14 25 6z m-2365 -26 c-19
-8 -19 -9 -1 -9 11 -1 17 -4 13 -7 -3 -4 -13 -4 -22 0 -20 7 -10 26 13 25 14
0 13 -2 -3 -9z m752 3 c-9 -2 -14 -9 -11 -15 4 -7 2 -8 -4 -4 -20 12 -13 26
11 25 17 -1 18 -2 4 -6z m97 -9 c3 -8 2 -12 -4 -9 -6 3 -10 10 -10 16 0 14 7
11 14 -7z m181 7 c3 -5 0 -13 -6 -17 -7 -4 -9 -3 -5 4 3 5 0 13 -6 15 -9 4
-10 6 -1 6 6 1 14 -3 18 -8z m366 -6 c11 6 11 5 2 -5 -12 -14 -33 -6 -33 13 0
8 3 7 9 -2 5 -8 14 -10 22 -6z m-857 -4 c3 -5 -1 -14 -8 -20 -12 -10 -13 -8
-9 8 6 23 9 25 17 12z m590 0 c3 -5 -1 -14 -8 -20 -12 -10 -13 -8 -9 8 6 23 9
25 17 12z m211 -9 c-3 -3 -11 0 -18 7 -9 10 -8 11 6 5 10 -3 15 -9 12 -12z
m317 -14 c-7 -7 -10 -5 -7 8 5 29 6 30 12 16 3 -8 1 -18 -5 -24z m113 22 c3
-5 1 -10 -4 -10 -6 0 -11 5 -11 10 0 6 2 10 4 10 3 0 8 -4 11 -10z m55 0 c0
-5 -5 -10 -11 -10 -5 0 -7 5 -4 10 3 6 8 10 11 10 2 0 4 -4 4 -10z m540 -6 c0
-2 -7 -4 -15 -4 -8 0 -15 4 -15 10 0 5 7 7 15 4 8 -4 15 -8 15 -10z m-2033 0
c-3 -3 -12 -4 -19 -1 -8 3 -5 6 6 6 11 1 17 -2 13 -5z m480 0 c-3 -3 -12 -4
-19 -1 -8 3 -5 6 6 6 11 1 17 -2 13 -5z m-860 -20 c-3 -3 -12 -4 -19 -1 -8 3
-5 6 6 6 11 1 17 -2 13 -5z m1550 0 c-3 -3 -12 -4 -19 -1 -8 3 -5 6 6 6 11 1
17 -2 13 -5z m656 -1 c-7 -2 -21 -2 -30 0 -10 3 -4 5 12 5 17 0 24 -2 18 -5z
m-3164 -65 c9 -26 0 -60 -18 -66 -8 -3 -8 3 -1 23 7 18 7 33 0 46 -8 13 -7 19
0 19 6 0 14 -10 19 -22z"/>
<path d="M205 481 c-6 -11 9 -23 19 -14 9 9 7 23 -3 23 -6 0 -12 -4 -16 -9z"/>
<path d="M470 475 c0 -9 5 -15 11 -13 6 2 11 8 11 13 0 5 -5 11 -11 13 -6 2
-11 -4 -11 -13z"/>
<path d="M530 475 c0 -8 5 -15 10 -15 6 0 10 7 10 15 0 8 -4 15 -10 15 -5 0
-10 -7 -10 -15z"/>
<path d="M577 214 c-8 -8 1 -24 14 -24 5 0 9 7 9 15 0 15 -12 20 -23 9z"/>
<path d="M470 205 c0 -9 5 -15 11 -13 6 2 11 8 11 13 0 5 -5 11 -11 13 -6 2
-11 -4 -11 -13z"/>
<path d="M638 173 c7 -3 16 -2 19 1 4 3 -2 6 -13 5 -11 0 -14 -3 -6 -6z"/>
</g>
</svg>
